<svg version="1.2" xmlns="http://www.w3.org/2000/svg" viewBox="0 0 1008 144" width="1008" height="144">
	<title>logo-01 (1)-svg</title>
	<defs>
		<linearGradient id="g1" x1="481.7" y1="-72.6" x2="532" y2="212.4" gradientUnits="userSpaceOnUse">
			<stop offset="0" stop-color="#e91ab1"/>
			<stop offset=".6" stop-color="#4a4daa"/>
			<stop offset="1" stop-color="#089ee2"/>
		</linearGradient>
	</defs>
	<style>
		.s0 { fill: url(#g1) } 
	</style>
	<path id="Layer" class="s0" d="m36.5 34.2q-10.2 0-17.1-6.9c-4.6-4.8-6.9-10.4-6.9-17.1h144.1c0 6.8-2.4 12.5-7.1 17.1-4.8 4.6-10.4 6.9-16.9 6.9zm0 48q-10.2 0-17.1-6.9c-4.6-4.8-6.9-10.4-6.9-17.1h144.1c0 6.8-2.4 12.5-7.1 17.1-4.8 4.6-10.4 6.9-16.9 6.9zm0 48.1q-10.2 0-17.1-6.9c-4.6-4.8-6.9-10.4-6.9-17.1h144.1c0 6.8-2.4 12.5-7.1 17.1-4.8 4.6-10.4 6.9-16.9 6.9zm168.2 0v-96.1l-24-24h36l84.1 84.1v-84.1h24v120.1h-24l-72.1-72.1v72.1zm144.1 0v-72.1h24v48h84.2c3.3 0 6.1-1.1 8.4-3.4 2.4-2.4 3.6-5.3 3.6-8.6v-60.1h-96.1q-10.2 0-17.1-6.9c-4.6-4.8-6.9-10.4-6.9-17.1h144.1v96.1c0 6.8-2.4 12.5-7.1 17.1-4.8 4.6-10.4 6.9-16.9 6.9h-120.2zm168.2 0v-120.1h24v96.1h120.1c0 6.8-2.4 12.5-7.1 17.1-4.8 4.6-10.4 6.9-16.9 6.9zm192.2-96.1q-10.2 0-17.1-6.9c-4.6-4.8-6.9-10.4-6.9-17.1h144.1c0 6.8-2.4 12.5-7.1 17.1-4.8 4.6-10.4 6.9-16.9 6.9zm-24 96.1v-72.1h24v48h96.1v-48h24v72.1zm168.2 0c0-6.6 2.3-12.3 6.9-16.9 4.8-4.8 10.4-7.1 17.1-7.1h96.1v-24h-120.1v-72.1h144.1c0 6.8-2.4 12.5-7.1 17.1-4.8 4.6-10.4 6.9-16.9 6.9h-96.1v24h120.1v72.1z"/>
</svg>