<?xml version="1.0" standalone="no"?>
<!DOCTYPE svg PUBLIC "-//W3C//DTD SVG 20010904//EN"
 "http://www.w3.org/TR/2001/REC-SVG-20010904/DTD/svg10.dtd">
<svg version="1.0" xmlns="http://www.w3.org/2000/svg"
 width="45.000000pt" height="37.000000pt" viewBox="0 0 45.000000 37.000000"
 preserveAspectRatio="xMidYMid meet">
  <defs>
    <linearGradient id="myGradient" x1="0%" y1="0%" x2="100%" y2="100%">
      <stop offset="0%" stop-color="#FF0054"/>
      <stop offset="100%" stop-color="#00DFFC"/>
    </linearGradient>
  </defs>

<g transform="translate(0.000000,37.000000) scale(0.100000,-0.100000)"
fill="url(#myGradient)" stroke="none">
<path d="M109 287 c-62 -56 -65 -63 -36 -99 13 -18 39 -41 56 -51 l31 -18 45
42 c25 23 45 49 45 59 0 17 -81 100 -97 100 -5 0 -24 -15 -44 -33z m51 -7 c0
-5 -4 -10 -10 -10 -5 0 -10 5 -10 10 0 6 5 10 10 10 6 0 10 -4 10 -10z m-60
-60 c0 -5 -4 -10 -10 -10 -5 0 -10 5 -10 10 0 6 5 10 10 10 6 0 10 -4 10 -10z
m60 0 c0 -5 -4 -10 -10 -10 -5 0 -10 5 -10 10 0 6 5 10 10 10 6 0 10 -4 10
-10z m70 0 c0 -5 -7 -10 -15 -10 -8 0 -15 5 -15 10 0 6 7 10 15 10 8 0 15 -4
15 -10z m-65 -61 c10 -15 -1 -23 -20 -15 -9 3 -13 10 -10 16 8 13 22 13 30 -1z"/>
<path d="M280 220 c0 -6 -18 -30 -41 -55 -31 -33 -39 -49 -34 -65 6 -19 13
-21 73 -18 l67 3 0 70 0 70 -32 3 c-19 2 -33 -1 -33 -8z m10 -60 c0 -5 -4 -10
-10 -10 -5 0 -10 5 -10 10 0 6 5 10 10 10 6 0 10 -4 10 -10z"/>
</g>
</svg>
