<svg width="24" height="24" viewBox="0 0 24 24" fill="none" xmlns="http://www.w3.org/2000/svg">
<rect width="24" height="24" rx="4" fill="#2E2E2E" fill-opacity="0.528834"/>
<path d="M19.4997 12.1803C19.4997 11.6537 19.4535 11.1537 19.3743 10.667H11.918V13.6737H16.1872C15.9959 14.6603 15.435 15.4937 14.6036 16.0603V18.0603H17.1506C18.6419 16.667 19.4997 14.6137 19.4997 12.1803Z" fill="url(#paint0_linear_7_185)"/>
<path d="M11.9186 19.9997C14.0565 19.9997 15.8448 19.2797 17.1513 18.0597L14.6042 16.0597C13.8916 16.5397 12.9876 16.833 11.9186 16.833C9.85327 16.833 8.10465 15.4264 7.47779 13.5264H4.85156V15.5864C6.15148 18.1997 8.82389 19.9997 11.9186 19.9997Z" fill="url(#paint1_linear_7_185)"/>
<path d="M7.47744 13.5264C7.31247 13.0464 7.22669 12.5331 7.22669 11.9998C7.22669 11.4664 7.31907 10.9531 7.47744 10.4731V8.41309H4.85121C4.31013 9.49309 4 10.7064 4 11.9998C4 13.2931 4.31013 14.5064 4.85121 15.5864L7.47744 13.5264Z" fill="url(#paint2_linear_7_185)"/>
<path d="M11.9186 7.16667C13.0866 7.16667 14.1291 7.57333 14.9539 8.36667L17.2107 6.08667C15.8448 4.79333 14.0565 4 11.9186 4C8.82389 4 6.15148 5.8 4.85156 8.41333L7.47779 10.4733C8.10465 8.57333 9.85327 7.16667 11.9186 7.16667Z" fill="url(#paint3_linear_7_185)"/>
<defs>
<linearGradient id="paint0_linear_7_185" x1="11.918" y1="11.8489" x2="20.4503" y2="14.3881" gradientUnits="userSpaceOnUse">
<stop stop-color="#E0008E"/>
<stop offset="1" stop-color="#E0008E"/>
</linearGradient>
<linearGradient id="paint1_linear_7_185" x1="4.85156" y1="14.5612" x2="16.4063" y2="20.9324" gradientUnits="userSpaceOnUse">
<stop stop-color="#E0008E"/>
<stop offset="1" stop-color="#E0008E"/>
</linearGradient>
<linearGradient id="paint2_linear_7_185" x1="4" y1="9.55984" x2="8.17736" y2="10.1475" gradientUnits="userSpaceOnUse">
<stop stop-color="#E0008E"/>
<stop offset="1" stop-color="#E0008E"/>
</linearGradient>
<linearGradient id="paint3_linear_7_185" x1="4.85156" y1="5.03485" x2="16.436" y2="11.4532" gradientUnits="userSpaceOnUse">
<stop stop-color="#E0008E"/>
<stop offset="1" stop-color="#E0008E"/>
</linearGradient>
</defs>
</svg>
